<?xml version="1.0" encoding="utf-8"?>
<!-- Generator: Adobe Illustrator 24.1.1, SVG Export Plug-In . SVG Version: 6.00 Build 0)  -->
<svg version="1.1" id="Layer_1" xmlns="http://www.w3.org/2000/svg" xmlns:xlink="http://www.w3.org/1999/xlink" x="0px" y="0px"
	 viewBox="0 0 512 512" style="enable-background:new 0 0 512 512;" xml:space="preserve">
<g>
	<path fill="#64748b" d="M150.6,182.6L256,77.3l105.4,105.4c12.5,12.5,32.8,12.5,45.3,0c12.5-12.5,12.5-32.8,0-45.3l-128-128
		c-12.5-12.5-32.8-12.5-45.3,0l-128,128c-12.5,12.5-12.5,32.8,0,45.3C117.9,195.1,138.1,195.1,150.6,182.6L150.6,182.6z
		 M361.4,329.4L256,434.7L150.6,329.4c-12.5-12.5-32.8-12.5-45.3,0c-12.5,12.5-12.5,32.8,0,45.3l128,128c6,6,14.2,9.4,22.6,9.4
		c8.4,0,16.7-3.4,22.6-9.4l128-128c12.5-12.5,12.5-32.8,0-45.3C394.1,316.9,373.9,316.9,361.4,329.4L361.4,329.4z"/>
</g>
</svg>
